Coordinates
version=1
nRows=88
nColumns=6
inDegrees=yes

Units are S.I. units (second, meters, Newtons, ...)
If the header above contains a line with 'inDegrees', this indicates whether rotational values are in degrees (yes) or radians (no).

endheader
time	bJoint_3	bJoint_4	baseangle	kneeangle	bladeangle
      3.00000000	      0.00000000	      0.00000000	    -27.50704313	     -6.40843668	     33.91548209
      3.02000000	      0.00000000	     -0.00000000	    -26.63202207	     -7.60395220	     34.23597410
      3.04000000	      0.00000000	     -0.00000000	    -25.75546924	     -8.79309097	     34.54855993
      3.06000000	      0.00000000	     -0.00000000	    -24.87935992	     -9.97300091	     34.85236053
      3.08000000	      0.00000000	     -0.00000000	    -24.00566589	    -11.14091114	     35.14657674
      3.10000000	      0.00000000	     -0.00000000	    -23.12919909	    -12.30359559	     35.43281177
      3.12000000	      0.00000000	     -0.00000000	    -22.25193446	    -13.45822201	     35.71016835
      3.14000000	      0.00000000	     -0.00000000	    -21.37585206	    -14.60203801	     35.97789833
      3.16000000	      0.00000000	     -0.00000000	    -20.49574820	    -15.74163995	     36.23739325
      3.18000000	     -0.00000000	     -0.00000000	    -19.61359361	    -16.87422692	     36.48782227
      3.20000000	     -0.00000000	     -0.00000000	    -18.73137536	    -17.99706427	     36.72844074
      3.22000000	      0.00000000	     -0.00000000	    -17.84384021	    -19.11660077	     36.96044225
      3.24000000	      0.00000000	     -0.00000000	    -16.95295318	    -20.23006629	     37.18304880
      3.26000000	      0.00000000	     -0.00000000	    -16.06070703	    -21.33474328	     37.39547615
      3.28000000	      0.00000000	     -0.00000000	    -15.16176370	    -22.43696010	     37.59874881
      3.30000000	      0.00000000	     -0.00000000	    -14.25807974	    -23.53397481	     37.79207936
      3.32000000	      0.00000000	     -0.00000000	    -13.35164861	    -24.62309702	     37.97477061
      3.34000000	      0.00000000	     -0.00000000	    -12.43701097	    -25.71055229	     38.14759146
      3.36000000	      0.00000000	     -0.00000000	    -11.51613659	    -26.79363165	     38.31046925
      3.38000000	      0.00000000	     -0.00000000	    -10.59096693	    -27.86966231	     38.46135781
      3.40000000	     -0.00000000	      0.00000000	     -9.65590306	    -28.94479385	     38.60147288
      3.42000000	     -0.00000000	      0.00000000	     -8.71286457	    -30.01634736	     38.72998768
      3.44000000	      0.00000000	     -0.00000000	     -7.76379704	    -31.08168704	     38.84552741
      3.46000000	     -0.00000000	      0.00000000	     -6.80296767	    -32.14688759	     38.95044757
      3.48000000	     -0.00000000	      0.00000000	     -5.83216221	    -33.20931537	     39.04186444
      3.50000000	      0.00000000	     -0.00000000	     -4.85338553	    -34.26634998	     39.11989609
      3.52000000	     -0.00000000	      0.00000000	     -3.86054513	    -35.32403728	     39.18480524
      3.54000000	     -0.00000000	      0.00000000	     -2.85545108	    -36.37977533	     39.23527394
      3.56000000	     -0.00000000	      0.00000000	     -1.84005395	    -37.43097538	     39.27091887
      3.58000000	      0.00000000	     -0.00000000	     -0.80789221	    -38.48367852	     39.29151525
      3.60000000	      0.00000000	     -0.00000000	      0.23926234	    -39.53530824	     39.29597434
      3.62000000	      0.00000000	     -0.00000000	      1.29954156	    -40.58331728	     39.28358082
      3.64000000	      0.00000000	     -0.00000000	      2.37985223	    -41.63375792	     39.25360278
      3.66000000	      0.00000000	     -0.00000000	      3.47852389	    -42.68410708	     39.20521467
      3.68000000	      0.00000000	     -0.00000000	      4.59377816	    -43.73185884	     39.13770347
      3.70000000	      0.00000000	     -0.00000000	      5.73308414	    -44.78311033	     39.05001565
      3.72000000	      0.00000000	     -0.00000000	      6.89498684	    -45.83540473	     38.94041029
      3.74000000	      0.00000000	     -0.00000000	      8.07784280	    -46.88629062	     38.80844374
      3.76000000	      0.00000000	     -0.00000000	      9.28990845	    -47.94196618	     38.65199218
      3.78000000	      0.00000000	     -0.00000000	     10.52993134	    -49.00004701	     38.47005822
      3.80000000	      0.00000000	     -0.00000000	     11.79655126	    -50.05816581	     38.26161365
      3.82000000	     -0.00000000	      0.00000000	     13.09916798	    -51.12266922	     38.02128565
      3.84000000	      0.00000000	     -0.00000000	     14.43670746	    -52.19132701	     37.75259068
      3.86000000	      0.00000000	     -0.00000000	     15.80824561	    -53.26187537	     37.45355827
      3.88000000	      0.00000000	      0.00000000	     16.04724994	    -54.69932176	     38.65263331
      3.90000000	      0.00000000	      0.00000000	     14.80044370	    -55.01470409	     40.21466191
      3.92000000	     -0.00000000	      0.00000000	     13.47776843	    -55.28611372	     41.80923258
      3.94000000	     -0.00000000	     -0.00000000	     11.71710592	    -55.21609270	     43.49921534
      3.96000000	      0.00000000	      0.00000000	      9.55703947	    -54.80664641	     45.24960616
      3.98000000	      0.00000000	      0.00000000	      7.37230208	    -54.35565762	     46.98335478
      4.00000000	      0.00000000	     -0.00000000	      7.03824890	    -54.06256296	     47.02431558
      4.02000000	      0.00000000	      0.00000000	      4.40720420	    -51.68874835	     47.28238791
      4.04000000	      0.00000000	      0.00000000	      1.91941848	    -49.33601909	     47.41726714
      4.06000000	      0.00000000	      0.00000000	     -0.44596731	    -47.00058391	     47.44691734
      4.08000000	      0.00000000	      0.00000000	     -2.71374537	    -44.67120552	     47.38527629
      4.10000000	      0.00000000	      0.00000000	     -4.89642918	    -42.34607716	     47.24247364
      4.12000000	     -0.00000000	     -0.00000000	     -7.00692652	    -40.02110725	     47.02763137
      4.14000000	      0.00000000	      0.00000000	     -9.05614426	    -37.69263312	     46.74867873
      4.16000000	      0.00000000	      0.00000000	    -11.05326650	    -35.35732149	     46.41004238
      4.18000000	     -0.00000000	     -0.00000000	    -13.00399467	    -33.01493390	     46.01855173
      4.20000000	      0.00000000	      0.00000000	    -14.92015735	    -30.65672946	     45.57686816
      4.22000000	      0.00000000	      0.00000000	    -16.80551154	    -28.28268960	     45.08817318
      4.24000000	     -0.00000000	     -0.00000000	    -18.66567977	    -25.88994443	     44.55558693
      4.26000000	      0.00000000	     -0.00000000	    -20.50572114	    -23.47560678	     43.97994967
      4.28000000	     -0.00000000	     -0.00000000	    -22.32823615	    -21.03972784	     43.36700438
      4.30000000	     -0.00000000	     -0.00000000	    -24.14199954	    -18.57327376	     42.71393698
      4.32000000	     -0.00000000	     -0.00000000	    -25.94896069	    -16.07601022	     42.02253647
      4.34000000	      0.00000000	      0.00000000	    -27.75335893	    -13.54448240	     41.29762222
      4.36000000	     -0.00000000	     -0.00000000	    -29.55896760	    -10.97500674	     40.53371253
      4.38000000	     -0.00000000	     -0.00000000	    -31.36759995	     -8.36683457	     39.73423728
      4.40000000	      0.00000000	      0.00000000	    -33.18772587	     -5.70915993	     38.89654252
      4.42000000	     -0.00000000	     -0.00000000	    -35.02138966	     -3.00021542	     38.02159814
      4.44000000	     -0.00000000	     -0.00000000	    -36.87293021	     -0.23455364	     37.10746395
      4.46000000	     -0.00000000	     -0.00000000	    -38.74709654	      2.59405278	     36.15301669
      4.48000000	      0.00000000	     -0.00000000	    -40.64904990	      5.49272408	     35.15629706
      4.50000000	      0.00000000	     -0.00000000	    -42.58213047	      8.46599951	     34.11610486
      4.52000000	      0.00000000	     -0.00000000	    -44.55757907	     11.53083273	     33.02673092
      4.54000000	     -0.00000000	     -0.00000000	    -46.58054295	     14.69508769	     31.88544152
      4.56000000	      0.00000000	     -0.00000000	    -46.03362918	     14.99668793	     31.03684053
      4.58000000	      0.00000000	     -0.00000000	    -45.50921481	     15.32627418	     30.18226344
      4.60000000	      0.00000000	     -0.00000000	    -45.00459493	     15.68372786	     29.32083873
      4.62000000	     -0.00000000	      0.00000000	    -44.25975025	     15.66879871	     28.58759470
      4.64000000	     -0.00000000	      0.00000000	    -43.27112697	     15.28146938	     27.98965786
      4.66000000	     -0.00000000	      0.00000000	    -42.29568556	     14.92226697	     27.37341863
      4.68000000	     -0.00000000	     -0.00000000	    -42.03280265	     14.52682984	     27.50597301
      4.70000000	      0.00000000	     -0.00000000	    -41.07460352	     13.08985823	     27.98474497
      4.72000000	      0.00000000	     -0.00000000	    -40.12867790	     11.67818244	     28.45049507
      4.74000000	      0.00000000	     -0.00000000	    -39.18905981	     10.28288194	     28.90623360
